<svg width="1200" height="1200" viewBox="0 0 1200 1200" fill="none" xmlns="http://www.w3.org/2000/svg">
<path d="M777.27 285.74C774.126 281.818 776.934 275.998 781.962 275.998H876.942C891.52 275.998 905.309 282.623 914.419 294.01L1067.22 485.01C1081.61 502.998 1081.19 528.655 1066.23 546.174L752.384 913.614C750.525 915.786 747.115 913.481 748.435 910.95L942.585 538.18C951.37 521.321 949.366 500.86 937.495 486.016L777.27 285.74Z" fill="#FA701A"/>
<path d="M494.88 276H705.12C706.944 276 708.671 276.828 709.8 278.258L895.12 509.908C898.085 513.615 898.589 518.728 896.393 522.951L610.643 1071.56C606.155 1080.17 593.842 1080.17 589.354 1071.56L303.614 522.941C301.419 518.73 301.923 513.617 304.888 509.898L490.198 278.258C491.338 276.828 493.053 276 494.877 276H494.88Z" fill="#FA701A"/>
<path d="M451.59 910.95C452.91 913.481 449.488 915.786 447.641 913.614L133.791 546.174C118.838 528.666 118.42 502.998 132.806 485.01L285.606 294.01C294.7 282.635 308.49 276.01 323.068 276.01H418.047C423.075 276.01 425.872 281.83 422.727 285.752L262.527 486.022C250.648 500.866 248.656 521.327 257.437 538.186L451.59 910.95Z" fill="#FA701A"/>
</svg>
