<?xml version="1.0" encoding="UTF-8"?>
<svg width="1200pt" height="1200pt" version="1.1" viewBox="0 0 1200 1200" xmlns="http://www.w3.org/2000/svg">
 <g>
  <path d="m777.27 285.74c-3.1445-3.9219-0.33594-9.7422 4.6914-9.7422h94.98c14.578 0 28.367 6.625 37.477 18.012l152.8 191c14.387 17.988 13.969 43.645-0.98438 61.164l-313.85 367.44c-1.8594 2.1719-5.2695-0.13281-3.9492-2.6641l194.15-372.77c8.7852-16.859 6.7812-37.32-5.0898-52.164z"/>
  <path d="m494.88 276h210.24c1.8242 0 3.5508 0.82812 4.6797 2.2578l185.32 231.65c2.9648 3.707 3.4688 8.8203 1.2734 13.043l-285.75 548.61c-4.4883 8.6055-16.801 8.6055-21.289 0l-285.74-548.62c-2.1953-4.2109-1.6914-9.3242 1.2734-13.043l185.31-231.64c1.1406-1.4297 2.8555-2.2578 4.6797-2.2578z"/>
  <path d="m451.59 910.95c1.3203 2.5312-2.1016 4.8359-3.9492 2.6641l-313.85-367.44c-14.953-17.508-15.371-43.176-0.98437-61.164l152.8-191c9.0938-11.375 22.883-18 37.461-18h94.98c5.0273 0 7.8242 5.8203 4.6797 9.7422l-160.2 200.27c-11.879 14.844-13.871 35.305-5.0898 52.164z"/>
 </g>
</svg>
