<svg width="60" height="50" viewBox="0 0 60 50" fill="none" xmlns="http://www.w3.org/2000/svg">
<path d="M41.0508 0.607355C40.8548 0.362853 41.0299 0 41.3433 0H47.2646C48.1734 0 49.0331 0.413021 49.601 1.12292L59.127 13.0304C60.0239 14.1518 59.9979 15.7513 59.0656 16.8435L39.4993 39.7508C39.3834 39.8862 39.1708 39.7425 39.2531 39.5847L51.357 16.3452C51.9047 15.2941 51.7797 14.0185 51.0397 13.0931L41.0508 0.607355Z" fill="#FA701A"/>
<path d="M23.4458 0.00012207H36.5527C36.6665 0.00012207 36.7741 0.0517502 36.8445 0.14088L48.3979 14.5826C48.5827 14.8137 48.6141 15.1325 48.4772 15.3957L30.6628 49.5976C30.383 50.1341 29.6154 50.1341 29.3356 49.5976L11.5217 15.3951C11.3849 15.1326 11.4163 14.8138 11.6011 14.582L23.1539 0.14088C23.225 0.0517489 23.3319 0.00012207 23.4456 0.00012207H23.4458Z" fill="#FA701A"/>
<path d="M20.7469 39.5847C20.8292 39.7425 20.6159 39.8862 20.5007 39.7508L0.934432 16.8435C0.00221993 15.752 -0.0238397 14.1518 0.873063 13.0304L10.399 1.1229C10.966 0.413754 11.8256 0.000732422 12.7345 0.000732422H18.6558C18.9692 0.000732422 19.1436 0.363586 18.9475 0.608088L8.96022 13.0935C8.21965 14.0189 8.09546 15.2945 8.6429 16.3455L20.7469 39.5847Z" fill="#FA701A"/>
</svg>
