<svg width="122" height="18" viewBox="0 0 122 18" fill="none" xmlns="http://www.w3.org/2000/svg">
<path d="M0.85539 17.5V1.2H6.45539C7.65539 1.2 8.73872 1.36667 9.70539 1.7C10.6887 2.01667 11.4721 2.55833 12.0554 3.325C12.6387 4.09167 12.9304 5.13333 12.9304 6.45C12.9304 7.71667 12.6387 8.75833 12.0554 9.575C11.4721 10.3917 10.6971 11 9.73039 11.4C8.76372 11.7833 7.70539 11.975 6.55539 11.975H4.53039V17.5H0.85539ZM4.53039 9.05H6.33039C8.33039 9.05 9.33039 8.18333 9.33039 6.45C9.33039 5.6 9.06372 5 8.53039 4.65C7.99706 4.3 7.23039 4.125 6.23039 4.125H4.53039V9.05ZM21.3279 9.25L20.9279 10.75H24.4029L24.0279 9.25C23.8112 8.43333 23.5862 7.56667 23.3529 6.65C23.1362 5.73333 22.9195 4.85 22.7029 4H22.6029C22.4029 4.86667 22.1945 5.75833 21.9779 6.675C21.7779 7.575 21.5612 8.43333 21.3279 9.25ZM15.4279 17.5L20.5279 1.2H24.9529L30.0529 17.5H26.1529L25.1529 13.625H20.1779L19.1779 17.5H15.4279ZM34.8339 17.5V1.2H40.7089C41.8589 1.2 42.9089 1.35833 43.8589 1.675C44.8089 1.975 45.5672 2.49167 46.1339 3.225C46.7006 3.95833 46.9839 4.975 46.9839 6.275C46.9839 7.475 46.7172 8.46667 46.1839 9.25C45.6672 10.0167 44.9672 10.5917 44.0839 10.975L47.7839 17.5H43.6589L40.5339 11.625H38.5089V17.5H34.8339ZM38.5089 8.7H40.4089C41.3756 8.7 42.1089 8.5 42.6089 8.1C43.1256 7.68333 43.3839 7.075 43.3839 6.275C43.3839 5.475 43.1256 4.91667 42.6089 4.6C42.1089 4.28333 41.3756 4.125 40.4089 4.125H38.5089V8.7ZM56.7956 9.25L56.3956 10.75H59.8706L59.4956 9.25C59.279 8.43333 59.054 7.56667 58.8206 6.65C58.604 5.73333 58.3873 4.85 58.1706 4H58.0706C57.8706 4.86667 57.6623 5.75833 57.4456 6.675C57.2456 7.575 57.029 8.43333 56.7956 9.25ZM50.8956 17.5L55.9956 1.2H60.4206L65.5206 17.5H61.6206L60.6206 13.625H55.6456L54.6456 17.5H50.8956ZM77.2575 17.8C75.7742 17.8 74.4242 17.4833 73.2075 16.85C72.0075 16.2167 71.0492 15.2833 70.3325 14.05C69.6325 12.8 69.2825 11.2667 69.2825 9.45C69.2825 7.65 69.6409 6.11667 70.3575 4.85C71.0909 3.56667 72.0575 2.59167 73.2575 1.925C74.4575 1.24167 75.7825 0.899999 77.2325 0.899999C78.4159 0.899999 79.4325 1.11667 80.2825 1.55C81.1325 1.98333 81.8242 2.475 82.3575 3.025L80.4325 5.375C80.0159 5.00833 79.5742 4.7 79.1075 4.45C78.6409 4.2 78.0575 4.075 77.3575 4.075C76.0909 4.075 75.0575 4.54167 74.2575 5.475C73.4575 6.40833 73.0575 7.69167 73.0575 9.325C73.0575 10.9917 73.4409 12.2917 74.2075 13.225C74.9742 14.1583 76.1159 14.625 77.6325 14.625C77.9659 14.625 78.2909 14.5833 78.6075 14.5C78.9242 14.4167 79.1825 14.2917 79.3825 14.125V11.325H76.6825V8.325H82.6325V15.825C82.0659 16.375 81.3075 16.8417 80.3575 17.225C79.4242 17.6083 78.3909 17.8 77.2575 17.8ZM95.6249 17.8C94.1583 17.8 92.8666 17.4583 91.7499 16.775C90.6499 16.0917 89.7833 15.1167 89.1499 13.85C88.5333 12.5667 88.2249 11.0417 88.2249 9.275C88.2249 7.49167 88.5333 5.98333 89.1499 4.75C89.7833 3.5 90.6499 2.55 91.7499 1.9C92.8666 1.23333 94.1583 0.899999 95.6249 0.899999C97.0916 0.899999 98.3749 1.23333 99.4749 1.9C100.592 2.55 101.458 3.5 102.075 4.75C102.708 6 103.025 7.50833 103.025 9.275C103.025 11.0417 102.708 12.5667 102.075 13.85C101.458 15.1167 100.592 16.0917 99.4749 16.775C98.3749 17.4583 97.0916 17.8 95.6249 17.8ZM95.6249 14.625C96.7416 14.625 97.6249 14.1417 98.2749 13.175C98.9249 12.2083 99.2499 10.9083 99.2499 9.275C99.2499 7.64167 98.9249 6.36667 98.2749 5.45C97.6249 4.53333 96.7416 4.075 95.6249 4.075C94.5083 4.075 93.6249 4.53333 92.9749 5.45C92.3249 6.36667 91.9999 7.64167 91.9999 9.275C91.9999 10.9083 92.3249 12.2083 92.9749 13.175C93.6249 14.1417 94.5083 14.625 95.6249 14.625ZM109.09 17.5V1.2H112.865L117.115 9.3L118.715 12.9H118.815C118.748 12.0333 118.656 11.0667 118.54 10C118.423 8.93333 118.365 7.91667 118.365 6.95V1.2H121.865V17.5H118.09L113.84 9.375L112.24 5.825H112.14C112.223 6.725 112.315 7.69167 112.415 8.725C112.531 9.75833 112.59 10.7583 112.59 11.725V17.5H109.09Z" fill="white"/>
</svg>
