<svg width="40" height="40" viewBox="0 0 40 40" fill="none" xmlns="http://www.w3.org/2000/svg">
<path d="M37.4876 21.2838C37.3765 21.3157 37.2719 21.3671 37.1787 21.4356C36.5463 21.9071 35.9768 22.444 35.3058 22.8779C34.0662 23.6797 32.7361 24.3379 31.3793 24.9157C26.084 27.1714 20.1643 28.1901 20.1643 28.1901C20.1643 28.1901 32.4355 30.8264 36.0601 28.5352C39.6582 26.2598 38.9238 21.3391 38.9207 21.3184C38.9148 21.2793 38.1182 21.2288 38.0403 21.2266C37.8542 21.2207 37.6643 21.2313 37.4876 21.2838Z" fill="url(#paint0_linear_3_4)"/>
<path d="M19.8805 28.0524C19.8805 28.0524 28.6732 27.7911 30.9937 18.0997C30.9937 18.0997 31.9745 14.3951 33.0859 12.8405C33.0859 12.8405 32.8464 13.2985 32.8681 14.1445C32.8681 14.1445 32.8633 12.4728 36.3611 9.42969C36.3611 9.42969 41.4646 15.8335 36.6164 22.635C36.6168 22.635 33.0551 28.5449 19.8805 28.0524Z" fill="url(#paint1_linear_3_4)"/>
<path d="M35.9951 28.5888C35.585 28.5404 35.1758 28.4302 34.7599 28.424C34.0579 28.4137 33.356 28.4014 32.6539 28.387C31.1738 28.3575 29.6938 28.3229 28.2139 28.283C26.8525 28.2473 25.4915 28.2089 24.1309 28.1679C23.1527 28.1387 22.1746 28.2548 21.1966 28.2231C20.8622 28.2123 20.5278 28.2014 20.1934 28.1901C20.1934 28.1901 30.2375 32.5977 33.3257 32.1754C36.4139 31.7531 36.8687 28.8608 36.8689 28.8597C36.8812 28.7785 36.3692 28.6588 36.2991 28.6421C36.1989 28.6185 36.0974 28.6006 35.9951 28.5888Z" fill="url(#paint2_linear_3_4)"/>
<path d="M25.0237 0.855085C24.9564 0.841707 24.8961 0.907625 24.8419 1.02969C24.0926 1.84571 21.5644 5.68292 27.7805 15.8419C27.3765 15.2364 26.5731 14.963 26.5731 14.963C28.6446 17.2037 28.7818 20.1326 27.3045 22.8406C25.8271 25.5486 23.1064 26.3114 20.181 25.69L20.2615 28.19C30.875 26.763 31.4276 17.271 31.4276 17.271C33.2155 2.48048 25.0238 0.855085 25.0237 0.855085Z" fill="url(#paint3_linear_3_4)"/>
<path d="M33.4437 32.1094C33.0898 31.8797 32.6752 31.7053 32.3075 31.543C31.8461 31.339 31.374 31.1589 30.8989 30.9893C29.7603 30.5825 28.6005 30.2351 27.4368 29.9079C26.2583 29.5767 25.073 29.2696 23.8843 28.9774C22.9799 28.755 22.0734 28.5413 21.1649 28.3362C20.8412 28.2632 20.5174 28.1905 20.1929 28.1214C20.1929 28.1214 26.0441 34.2522 29.8149 34.3822C33.5857 34.5123 34.2358 32.8544 34.2358 32.8544C34.1087 32.7 33.9733 32.5526 33.8304 32.4127C33.7117 32.2992 33.5822 32.1977 33.4437 32.1094Z" fill="url(#paint4_linear_3_4)"/>
<path d="M2.5124 21.2838C2.62353 21.3157 2.72812 21.3671 2.82129 21.4356C3.45371 21.9071 4.02324 22.444 4.69424 22.8779C5.93379 23.6797 7.26386 24.3379 8.6207 24.9157C13.9163 27.1711 19.8357 28.1899 19.8357 28.1899C19.8357 28.1899 7.56445 30.8264 3.93994 28.5352C0.341794 26.2598 1.07617 21.3391 1.07929 21.3184C1.08515 21.2793 1.88183 21.2288 1.95967 21.2266C2.1458 21.2207 2.33574 21.2313 2.5124 21.2838Z" fill="url(#paint5_linear_3_4)"/>
<path d="M20.0482 28.1896C20.0482 28.1896 11.2555 27.9282 8.93496 18.2369C8.93496 18.2369 7.9543 14.5323 6.84287 12.9777C6.84287 12.9777 7.08242 13.4357 7.06065 14.2817C7.06065 14.2817 7.06543 12.6099 3.56768 9.56689C3.56768 9.56689 -1.53594 15.9707 3.3124 22.7722C3.31201 22.7722 6.87373 28.6824 20.0482 28.1896Z" fill="url(#paint6_linear_3_4)"/>
<path d="M4.00489 28.5888C4.41504 28.5404 4.82422 28.4302 5.24014 28.424C5.94209 28.4137 6.64408 28.4014 7.3461 28.387C8.82618 28.3575 10.3062 28.3229 11.7861 28.283C13.1474 28.2473 14.5085 28.2089 15.8696 28.1679C16.8478 28.1387 17.8259 28.2548 18.8039 28.2231C19.1383 28.2123 19.4727 28.2014 19.8071 28.1901C19.8071 28.1901 9.7625 32.5977 6.67432 32.1754C3.58614 31.7531 3.13125 28.8608 3.13106 28.8597C3.11885 28.7785 3.63077 28.6588 3.70088 28.6421C3.8011 28.6185 3.9026 28.6006 4.00489 28.5888Z" fill="url(#paint7_linear_3_4)"/>
<path d="M14.9763 0.855085C15.0435 0.841707 15.1039 0.907625 15.1581 1.02969C15.9074 1.84571 18.4355 5.68292 12.2195 15.8419C12.6235 15.2364 13.4268 14.963 13.4268 14.963C11.3554 17.2037 11.2182 20.1326 12.6955 22.8406C14.1728 25.5486 16.8935 26.3114 19.819 25.69L19.7385 28.19C9.12499 26.763 8.57235 17.271 8.57235 17.271C6.78446 2.48048 14.9762 0.855085 14.9763 0.855085Z" fill="url(#paint8_linear_3_4)"/>
<path d="M6.62491 32.1783C6.97881 31.9486 7.39346 31.7743 7.76104 31.6119C8.22256 31.4079 8.69453 31.2278 9.16963 31.0582C10.3083 30.6515 11.4681 30.304 12.6318 29.977C13.8104 29.6457 14.9951 29.3387 16.1843 29.0463C17.0887 28.8239 17.9952 28.6102 18.9037 28.4052C19.2273 28.3321 19.5512 28.2596 19.8757 28.1903C19.8757 28.1903 14.0244 34.3211 10.2537 34.4511C6.48301 34.5811 5.83272 32.9232 5.83272 32.9232C5.95992 32.7689 6.09531 32.6214 6.23828 32.4816C6.35699 32.3682 6.48648 32.2666 6.62491 32.1783Z" fill="url(#paint9_linear_3_4)"/>
<path d="M28.4006 10.2202C27.521 10.5778 26.2936 10.0863 25.5259 8.79824C24.535 7.13564 24.7309 4.95546 25.2357 3.37079C25.404 2.84277 25.4135 2.81044 25.9036 3.02304C26.3098 3.19882 26.7188 3.51249 27.077 3.81308C28.2527 4.79941 29.3873 6.3746 29.456 8.03525C29.5056 9.23593 29.047 9.95732 28.4006 10.2202Z" fill="#FFFF4D"/>
<path d="M34.6235 26.709C34.2773 26.3749 34.241 25.717 34.661 25.1161C35.2029 24.3401 36.2279 24.0089 37.0492 23.9342C37.3228 23.9093 37.3394 23.9073 37.3465 24.1733C37.3524 24.3935 37.297 24.6416 37.2366 24.864C37.0385 25.5937 36.5662 26.4182 35.8313 26.7707C35.2999 27.0255 34.878 26.9549 34.6235 26.709Z" fill="#FFFF4D"/>
<path d="M32.1817 30.676C32.0888 30.3443 32.3222 29.9207 32.8275 29.6945C33.4798 29.4026 34.2696 29.5595 34.8283 29.8047C35.0144 29.8863 35.0259 29.891 34.9266 30.0596C34.8444 30.1992 34.7119 30.3345 34.5862 30.4518C34.1736 30.8372 33.5474 31.1844 32.9362 31.1435C32.4942 31.114 32.2498 30.9195 32.1817 30.676Z" fill="#FFFF4D"/>
<path d="M34.1134 20.4063C33.3094 20.2038 32.7117 19.1782 32.857 17.801C33.0446 16.0236 34.3354 14.4927 35.527 13.574C35.9241 13.268 35.9479 13.2488 36.1778 13.6706C36.3685 14.0201 36.4884 14.474 36.5796 14.8913C36.8791 16.2607 36.8383 18.0494 36.0073 19.3319C35.4064 20.2593 34.7042 20.5551 34.1134 20.4063Z" fill="#FFFF4D"/>
<path d="M29.1135 32.7874C29.1309 32.5148 29.4973 32.2664 30.0654 32.2414C30.7981 32.209 31.5202 32.5494 31.9867 32.8894C32.1422 33.0027 32.1518 33.0094 31.9999 33.1065C31.8739 33.1869 31.6999 33.2499 31.5389 33.3014C31.0097 33.4709 30.2838 33.5518 29.6988 33.3482C29.2764 33.201 29.1007 32.9877 29.1135 32.7874Z" fill="#FFFF4D"/>
<path d="M11.5994 10.2202C12.479 10.5778 13.7064 10.0863 14.4741 8.79824C15.465 7.13564 15.2691 4.95546 14.7643 3.37079C14.596 2.84277 14.5865 2.81044 14.0964 3.02304C13.6902 3.19882 13.2812 3.51249 12.923 3.81308C11.7473 4.79941 10.6127 6.3746 10.544 8.03525C10.4944 9.23593 10.953 9.95732 11.5994 10.2202Z" fill="#FFFF4D"/>
<path d="M5.37805 26.7465C5.72388 26.4119 5.75933 25.754 5.33861 25.1537C4.79574 24.3783 3.77028 24.0484 2.94897 23.9747C2.67527 23.9502 2.65868 23.9482 2.65197 24.2142C2.64631 24.4344 2.70205 24.6824 2.76269 24.9047C2.96172 25.6342 3.43503 26.4581 4.17038 26.8097C4.70206 27.0638 5.12387 26.9927 5.37805 26.7465Z" fill="#FFFF4D"/>
<path d="M7.81518 30.6821C7.90737 30.3503 7.67314 29.9271 7.16741 29.7019C6.51453 29.4113 5.72504 29.5697 5.16689 29.816C4.98092 29.898 4.96948 29.9028 5.06907 30.0711C5.15153 30.2105 5.28434 30.3455 5.41019 30.4627C5.82354 30.8472 6.45042 31.1932 7.06158 31.1511C7.50351 31.1208 7.74753 30.9257 7.81518 30.6821Z" fill="#FFFF4D"/>
<path d="M5.88663 20.4063C6.69063 20.2038 7.28829 19.1782 7.14297 17.801C6.95538 16.0236 5.66465 14.4927 4.47305 13.574C4.07588 13.268 4.05215 13.2488 3.82217 13.6706C3.63155 14.0201 3.51163 14.474 3.42042 14.8913C3.1209 16.2607 3.16172 18.0494 3.99268 19.3319C4.59356 20.2593 5.29581 20.5551 5.88663 20.4063Z" fill="#FFFF4D"/>
<path d="M10.8632 32.6072C10.8193 32.3376 10.4305 32.126 9.86269 32.1565C9.13027 32.1955 8.44472 32.6046 8.01357 32.9884C7.86982 33.1163 7.86093 33.1239 8.02158 33.2058C8.15478 33.2735 8.33408 33.3193 8.49931 33.3549C9.04258 33.4721 9.77285 33.4818 10.3353 33.2223C10.7413 33.0347 10.8954 32.8053 10.8632 32.6072Z" fill="#FFFF4D"/>
<path d="M16.0407 18.1918C16.0407 18.1918 17.1831 18.7945 19.0266 17.4683C19.1106 17.428 19.1991 17.398 19.2902 17.3788L19.2912 17.3778C19.6102 17.3107 20.0979 17.3574 20.0442 18.3045C19.9643 19.701 18.1218 21.1561 18.1218 21.1561C18.1218 21.1561 14.4037 23.937 14.1131 26.0072C13.908 27.4639 13.9238 28.9369 13.7883 30.3984C13.6722 31.6484 13.203 32.8615 12.1526 33.6229C12.1175 33.6501 12.0815 33.6773 12.0443 33.7026C12.0356 33.7094 12.0268 33.7152 12.016 33.7222C12.0132 33.725 12.0099 33.7272 12.0063 33.7289C11.8088 33.8614 11.601 33.9778 11.3849 34.0771C9.19737 35.0445 6.59883 33.7202 6.42227 33.6298L6.46817 33.6628C6.46817 33.6628 6.47598 33.6696 6.49249 33.6832C6.60469 33.7809 6.71397 33.9186 6.81534 34.0129C7.19092 34.362 7.58301 34.6916 7.98672 35.0066C9.27813 36.016 10.6934 36.8794 12.2055 37.5183C12.9026 37.8135 13.615 38.0715 14.3396 38.2913C16.219 38.8602 18.164 39.1577 20.1536 39.146C22.0173 39.1355 23.869 38.8492 25.6488 38.2964C26.1433 38.1428 26.6313 37.9688 27.1128 37.7742C27.818 37.4894 28.5114 37.1567 29.1874 36.794C29.4927 36.6297 29.794 36.4599 30.0915 36.2846C30.0935 36.2836 30.0944 36.2826 30.0954 36.2826C30.9021 35.7993 32.1057 35.0088 33.1161 34.0561C33.2653 33.915 33.4106 33.7712 33.5492 33.6233C33.6028 33.567 33.6545 33.5096 33.7063 33.4532C33.7063 33.4532 32.9532 33.9044 32.1866 34.1406C31.9993 34.198 31.8102 34.2428 31.6316 34.2651L31.6258 34.2661C29.8887 34.5792 27.4025 34.3108 26.0429 30.892C26.0429 30.892 24.5232 28.3041 25.0401 24.7466C25.557 21.1891 24.7495 19.6357 24.7495 19.6357C24.7495 19.6357 24.3613 18.6012 23.4884 17.8573C22.6154 17.1135 20.0288 14.8167 22.4701 12.342C22.4701 12.342 21.0481 11.6302 17.9767 15.2212C17.9767 15.2212 15.8748 17.4849 13.4822 17.7114C13.4822 17.7114 15.0907 19.3464 17.517 16.9713C17.5161 16.9712 16.997 18.1168 16.0407 18.1918Z" fill="url(#paint10_linear_3_4)"/>
<path d="M25.7362 38.2961C23.9613 38.8492 22.1142 39.1357 20.2552 39.1463C18.2705 39.158 16.3307 38.8603 14.456 38.2912L14.5007 38.2436C14.8217 38.0996 15.1255 37.9201 15.4065 37.7084C16.4299 36.938 17.0787 35.789 17.3522 34.498C17.6401 33.1398 17.572 31.7098 17.3259 30.3507C16.925 28.1384 16.6244 26.1635 17.8988 24.1419C18.2268 23.6204 18.645 23.1914 19.0148 22.7069C19.7162 21.7895 20.2299 20.6687 20.619 19.5879C20.8408 18.9711 21.2922 17.6549 20.4225 17.3095C20.1335 17.1937 19.6773 17.2313 19.3951 17.3669C22.3541 15.9329 23.1475 19.2912 23.1475 19.2912C23.7682 21.2165 23.3002 23.3616 22.4889 25.1565C21.6295 27.0575 21.8341 29.2037 22.1513 31.2078C22.3303 32.3383 22.5764 33.4823 22.9529 34.5651C23.4043 35.9213 24.1583 36.9136 24.9112 37.6209C25.1704 37.8646 25.4461 38.0902 25.7362 38.2961Z" fill="url(#paint11_linear_3_4)"/>
<defs>
<linearGradient id="paint0_linear_3_4" x1="22.2265" y1="31.762" x2="39.2696" y2="21.9221" gradientUnits="userSpaceOnUse">
<stop stop-color="#FE3549"/>
<stop offset="0.25" stop-color="#FE3549"/>
<stop offset="0.65" stop-color="#FE8C47"/>
<stop offset="0.89" stop-color="#FFCB45"/>
<stop offset="1" stop-color="#FFE444"/>
</linearGradient>
<linearGradient id="paint1_linear_3_4" x1="22.1936" y1="30.3655" x2="39.7455" y2="12.8137" gradientUnits="userSpaceOnUse">
<stop stop-color="#FE3549"/>
<stop offset="0.25" stop-color="#FE3549"/>
<stop offset="0.4" stop-color="#FE6448"/>
<stop offset="0.61" stop-color="#FF9B46"/>
<stop offset="0.78" stop-color="#FFC345"/>
<stop offset="0.92" stop-color="#FFDB44"/>
<stop offset="1" stop-color="#FFE444"/>
</linearGradient>
<linearGradient id="paint2_linear_3_4" x1="24.1981" y1="24.1849" x2="33.3805" y2="33.3673" gradientUnits="userSpaceOnUse">
<stop stop-color="#FE3549"/>
<stop offset="0.48" stop-color="#FE3549"/>
<stop offset="0.79" stop-color="#FF9B46"/>
<stop offset="1" stop-color="#FFE444"/>
</linearGradient>
<linearGradient id="paint3_linear_3_4" x1="25.5851" y1="29.6646" x2="26.5443" y2="2.19551" gradientUnits="userSpaceOnUse">
<stop stop-color="#FE3549"/>
<stop offset="0.22" stop-color="#FE3549"/>
<stop offset="0.25" stop-color="#FE4848"/>
<stop offset="0.34" stop-color="#FE7147"/>
<stop offset="0.42" stop-color="#FF9446"/>
<stop offset="0.51" stop-color="#FFB145"/>
<stop offset="0.61" stop-color="#FFC845"/>
<stop offset="0.72" stop-color="#FFD844"/>
<stop offset="0.84" stop-color="#FFE144"/>
<stop offset="1" stop-color="#FFE444"/>
</linearGradient>
<linearGradient id="paint4_linear_3_4" x1="22.5284" y1="25.786" x2="31.9748" y2="35.2324" gradientUnits="userSpaceOnUse">
<stop stop-color="#FE3549"/>
<stop offset="0.3" stop-color="#FE3549"/>
<stop offset="0.79" stop-color="#FF9B46"/>
<stop offset="1" stop-color="#FFE444"/>
</linearGradient>
<linearGradient id="paint5_linear_3_4" x1="17.7736" y1="31.762" x2="0.730368" y2="21.9221" gradientUnits="userSpaceOnUse">
<stop stop-color="#FE3549"/>
<stop offset="0.25" stop-color="#FE3549"/>
<stop offset="0.65" stop-color="#FE8C47"/>
<stop offset="0.89" stop-color="#FFCB45"/>
<stop offset="1" stop-color="#FFE444"/>
</linearGradient>
<linearGradient id="paint6_linear_3_4" x1="17.7352" y1="30.5027" x2="0.1833" y2="12.9509" gradientUnits="userSpaceOnUse">
<stop stop-color="#FE3549"/>
<stop offset="0.25" stop-color="#FE3549"/>
<stop offset="0.4" stop-color="#FE6448"/>
<stop offset="0.61" stop-color="#FF9B46"/>
<stop offset="0.78" stop-color="#FFC345"/>
<stop offset="0.92" stop-color="#FFDB44"/>
<stop offset="1" stop-color="#FFE444"/>
</linearGradient>
<linearGradient id="paint7_linear_3_4" x1="15.802" y1="24.1849" x2="6.61953" y2="33.3673" gradientUnits="userSpaceOnUse">
<stop stop-color="#FE3549"/>
<stop offset="0.48" stop-color="#FE3549"/>
<stop offset="0.79" stop-color="#FF9B46"/>
<stop offset="1" stop-color="#FFE444"/>
</linearGradient>
<linearGradient id="paint8_linear_3_4" x1="14.4149" y1="29.6646" x2="13.4557" y2="2.19552" gradientUnits="userSpaceOnUse">
<stop stop-color="#FE3549"/>
<stop offset="0.22" stop-color="#FE3549"/>
<stop offset="0.25" stop-color="#FE4848"/>
<stop offset="0.34" stop-color="#FE7147"/>
<stop offset="0.42" stop-color="#FF9446"/>
<stop offset="0.51" stop-color="#FFB145"/>
<stop offset="0.61" stop-color="#FFC845"/>
<stop offset="0.72" stop-color="#FFD844"/>
<stop offset="0.84" stop-color="#FFE144"/>
<stop offset="1" stop-color="#FFE444"/>
</linearGradient>
<linearGradient id="paint9_linear_3_4" x1="17.5402" y1="25.8546" x2="8.09385" y2="35.3011" gradientUnits="userSpaceOnUse">
<stop stop-color="#FE3549"/>
<stop offset="0.3" stop-color="#FE3549"/>
<stop offset="0.79" stop-color="#FF9B46"/>
<stop offset="1" stop-color="#FFE444"/>
</linearGradient>
<linearGradient id="paint10_linear_3_4" x1="20.0638" y1="39.1467" x2="20.0638" y2="12.2845" gradientUnits="userSpaceOnUse">
<stop stop-color="#FF483C"/>
<stop offset="0.13" stop-color="#FF553D"/>
<stop offset="0.5" stop-color="#FF763E"/>
<stop offset="0.85" stop-color="#FFAC41"/>
<stop offset="0.99" stop-color="#FFE444"/>
<stop offset="1" stop-color="#FFE444"/>
</linearGradient>
<linearGradient id="paint11_linear_3_4" x1="20.0961" y1="39.1467" x2="20.0961" y2="17.0106" gradientUnits="userSpaceOnUse">
<stop stop-color="#FF553D" stop-opacity="0.21"/>
<stop offset="0.04" stop-color="#FF623E" stop-opacity="0.21"/>
<stop offset="0.16" stop-color="#FF843F" stop-opacity="0.21"/>
<stop offset="0.28" stop-color="#FFA041" stop-opacity="0.21"/>
<stop offset="0.42" stop-color="#FFB542" stop-opacity="0.21"/>
<stop offset="0.57" stop-color="#FFC442" stop-opacity="0.21"/>
<stop offset="0.74" stop-color="#FFCD43" stop-opacity="0.21"/>
<stop offset="1" stop-color="#FFD043" stop-opacity="0.21"/>
</linearGradient>
</defs>
</svg>
