<svg width="280" height="50" viewBox="0 0 280 50" fill="none" xmlns="http://www.w3.org/2000/svg">
<path d="M40.8332 0.607355C40.6372 0.362853 40.8123 0 41.1257 0H47.047C47.9559 0 48.8155 0.413021 49.3835 1.12292L58.9094 13.0304C59.8064 14.1518 59.7803 15.7513 58.8481 16.8435L39.2818 39.7508C39.1659 39.8862 38.9533 39.7425 39.0356 39.5847L51.1394 16.3452C51.6871 15.2941 51.5622 14.0185 50.8221 13.0931L40.8332 0.607355Z" fill="#FA701A"/>
<path d="M23.2283 0.00012207H36.3352C36.449 0.00012207 36.5566 0.0517502 36.627 0.14088L48.1804 14.5826C48.3652 14.8137 48.3966 15.1325 48.2597 15.3957L30.4453 49.5976C30.1655 50.1341 29.3979 50.1341 29.1181 49.5976L11.3042 15.3951C11.1674 15.1326 11.1988 14.8138 11.3836 14.582L22.9364 0.14088C23.0075 0.0517489 23.1144 0.00012207 23.2281 0.00012207H23.2283Z" fill="#FA701A"/>
<path d="M20.5295 39.5847C20.6118 39.7425 20.3985 39.8862 20.2833 39.7508L0.716994 16.8435C-0.215218 15.752 -0.241277 14.1518 0.655625 13.0304L10.1816 1.1229C10.7485 0.413754 11.6082 0.000732422 12.517 0.000732422H18.4383C18.7518 0.000732422 18.9261 0.363586 18.7301 0.608088L8.74278 13.0935C8.00221 14.0189 7.87802 15.2945 8.42547 16.3455L20.5295 39.5847Z" fill="#FA701A"/>
<path d="M82.6452 39V12.92H91.6052C93.5252 12.92 95.2585 13.1867 96.8052 13.72C98.3785 14.2267 99.6319 15.0933 100.565 16.32C101.499 17.5467 101.965 19.2133 101.965 21.32C101.965 23.3467 101.499 25.0133 100.565 26.32C99.6319 27.6267 98.3919 28.6 96.8452 29.24C95.2985 29.8533 93.6052 30.16 91.7652 30.16H88.5252V39H82.6452ZM88.5252 25.48H91.4052C94.6052 25.48 96.2052 24.0933 96.2052 21.32C96.2052 19.96 95.7785 19 94.9252 18.44C94.0719 17.88 92.8452 17.6 91.2452 17.6H88.5252V25.48ZM115.401 25.8L114.761 28.2H120.321L119.721 25.8C119.374 24.4933 119.014 23.1067 118.641 21.64C118.294 20.1733 117.948 18.76 117.601 17.4H117.441C117.121 18.7867 116.788 20.2133 116.441 21.68C116.121 23.12 115.774 24.4933 115.401 25.8ZM105.961 39L114.121 12.92H121.201L129.361 39H123.121L121.521 32.8H113.561L111.961 39H105.961ZM137.011 39V12.92H146.411C148.251 12.92 149.931 13.1733 151.451 13.68C152.971 14.16 154.184 14.9867 155.091 16.16C155.997 17.3333 156.451 18.96 156.451 21.04C156.451 22.96 156.024 24.5467 155.171 25.8C154.344 27.0267 153.224 27.9467 151.811 28.56L157.731 39H151.131L146.131 29.6H142.891V39H137.011ZM142.891 24.92H145.931C147.477 24.92 148.651 24.6 149.451 23.96C150.277 23.2933 150.691 22.32 150.691 21.04C150.691 19.76 150.277 18.8667 149.451 18.36C148.651 17.8533 147.477 17.6 145.931 17.6H142.891V24.92ZM172.15 25.8L171.51 28.2H177.07L176.47 25.8C176.123 24.4933 175.763 23.1067 175.39 21.64C175.043 20.1733 174.696 18.76 174.35 17.4H174.19C173.87 18.7867 173.536 20.2133 173.19 21.68C172.87 23.12 172.523 24.4933 172.15 25.8ZM162.71 39L170.87 12.92H177.95L186.11 39H179.87L178.27 32.8H170.31L168.71 39H162.71ZM204.889 39.48C202.515 39.48 200.355 38.9733 198.409 37.96C196.489 36.9467 194.955 35.4533 193.809 33.48C192.689 31.48 192.129 29.0267 192.129 26.12C192.129 23.24 192.702 20.7867 193.849 18.76C195.022 16.7067 196.569 15.1467 198.489 14.08C200.409 12.9867 202.529 12.44 204.849 12.44C206.742 12.44 208.369 12.7867 209.729 13.48C211.089 14.1733 212.195 14.96 213.049 15.84L209.969 19.6C209.302 19.0133 208.595 18.52 207.849 18.12C207.102 17.72 206.169 17.52 205.049 17.52C203.022 17.52 201.369 18.2667 200.089 19.76C198.809 21.2533 198.169 23.3067 198.169 25.92C198.169 28.5867 198.782 30.6667 200.009 32.16C201.235 33.6533 203.062 34.4 205.489 34.4C206.022 34.4 206.542 34.3333 207.049 34.2C207.555 34.0667 207.969 33.8667 208.289 33.6V29.12H203.969V24.32H213.489V36.32C212.582 37.2 211.369 37.9467 209.849 38.56C208.355 39.1733 206.702 39.48 204.889 39.48ZM234.276 39.48C231.93 39.48 229.863 38.9333 228.076 37.84C226.316 36.7467 224.93 35.1867 223.916 33.16C222.93 31.1067 222.436 28.6667 222.436 25.84C222.436 22.9867 222.93 20.5733 223.916 18.6C224.93 16.6 226.316 15.08 228.076 14.04C229.863 12.9733 231.93 12.44 234.276 12.44C236.623 12.44 238.676 12.9733 240.436 14.04C242.223 15.08 243.61 16.6 244.596 18.6C245.61 20.6 246.116 23.0133 246.116 25.84C246.116 28.6667 245.61 31.1067 244.596 33.16C243.61 35.1867 242.223 36.7467 240.436 37.84C238.676 38.9333 236.623 39.48 234.276 39.48ZM234.276 34.4C236.063 34.4 237.476 33.6267 238.516 32.08C239.556 30.5333 240.076 28.4533 240.076 25.84C240.076 23.2267 239.556 21.1867 238.516 19.72C237.476 18.2533 236.063 17.52 234.276 17.52C232.49 17.52 231.076 18.2533 230.036 19.72C228.996 21.1867 228.476 23.2267 228.476 25.84C228.476 28.4533 228.996 30.5333 230.036 32.08C231.076 33.6267 232.49 34.4 234.276 34.4ZM255.82 39V12.92H261.86L268.66 25.88L271.22 31.64H271.38C271.274 30.2533 271.127 28.7067 270.94 27C270.754 25.2933 270.66 23.6667 270.66 22.12V12.92H276.26V39H270.22L263.42 26L260.86 20.32H260.7C260.834 21.76 260.98 23.3067 261.14 24.96C261.327 26.6133 261.42 28.2133 261.42 29.76V39H255.82Z" fill="white"/>
</svg>
