<svg width="195" height="28" viewBox="0 0 195 28" fill="none" xmlns="http://www.w3.org/2000/svg">
<path d="M0.862593 27V0.92H9.82259C11.7426 0.92 13.4759 1.18667 15.0226 1.72C16.5959 2.22667 17.8493 3.09333 18.7826 4.32C19.7159 5.54667 20.1826 7.21333 20.1826 9.32C20.1826 11.3467 19.7159 13.0133 18.7826 14.32C17.8493 15.6267 16.6093 16.6 15.0626 17.24C13.5159 17.8533 11.8226 18.16 9.98259 18.16H6.74259V27H0.862593ZM6.74259 13.48H9.62259C12.8226 13.48 14.4226 12.0933 14.4226 9.32C14.4226 7.96 13.9959 7 13.1426 6.44C12.2893 5.88 11.0626 5.6 9.46259 5.6H6.74259V13.48ZM33.6185 13.8L32.9785 16.2H38.5385L37.9385 13.8C37.5919 12.4933 37.2319 11.1067 36.8585 9.64C36.5119 8.17333 36.1652 6.76 35.8185 5.4H35.6585C35.3385 6.78667 35.0052 8.21333 34.6585 9.68C34.3385 11.12 33.9919 12.4933 33.6185 13.8ZM24.1785 27L32.3385 0.92H39.4185L47.5785 27H41.3385L39.7385 20.8H31.7785L30.1785 27H24.1785ZM55.2282 27V0.92H64.6282C66.4682 0.92 68.1482 1.17333 69.6682 1.68C71.1882 2.16 72.4016 2.98667 73.3082 4.16C74.2149 5.33333 74.6682 6.96 74.6682 9.04C74.6682 10.96 74.2416 12.5467 73.3882 13.8C72.5615 15.0267 71.4415 15.9467 70.0282 16.56L75.9482 27H69.3482L64.3482 17.6H61.1082V27H55.2282ZM61.1082 12.92H64.1482C65.6949 12.92 66.8682 12.6 67.6682 11.96C68.4949 11.2933 68.9082 10.32 68.9082 9.04C68.9082 7.76 68.4949 6.86667 67.6682 6.36C66.8682 5.85333 65.6949 5.6 64.1482 5.6H61.1082V12.92ZM90.367 13.8L89.727 16.2H95.287L94.687 13.8C94.3403 12.4933 93.9803 11.1067 93.607 9.64C93.2603 8.17333 92.9136 6.76 92.567 5.4H92.407C92.087 6.78667 91.7536 8.21333 91.407 9.68C91.087 11.12 90.7403 12.4933 90.367 13.8ZM80.927 27L89.087 0.92H96.167L104.327 27H98.087L96.487 20.8H88.527L86.927 27H80.927ZM123.106 27.48C120.733 27.48 118.573 26.9733 116.626 25.96C114.706 24.9467 113.173 23.4533 112.026 21.48C110.906 19.48 110.346 17.0267 110.346 14.12C110.346 11.24 110.919 8.78667 112.066 6.76C113.239 4.70667 114.786 3.14667 116.706 2.08C118.626 0.986665 120.746 0.439999 123.066 0.439999C124.959 0.439999 126.586 0.786666 127.946 1.48C129.306 2.17333 130.413 2.96 131.266 3.84L128.186 7.6C127.519 7.01333 126.813 6.52 126.066 6.12C125.319 5.72 124.386 5.52 123.266 5.52C121.239 5.52 119.586 6.26667 118.306 7.76C117.026 9.25333 116.386 11.3067 116.386 13.92C116.386 16.5867 116.999 18.6667 118.226 20.16C119.453 21.6533 121.279 22.4 123.706 22.4C124.239 22.4 124.759 22.3333 125.266 22.2C125.773 22.0667 126.186 21.8667 126.506 21.6V17.12H122.186V12.32H131.706V24.32C130.799 25.2 129.586 25.9467 128.066 26.56C126.573 27.1733 124.919 27.48 123.106 27.48ZM152.494 27.48C150.147 27.48 148.081 26.9333 146.294 25.84C144.534 24.7467 143.147 23.1867 142.134 21.16C141.147 19.1067 140.654 16.6667 140.654 13.84C140.654 10.9867 141.147 8.57333 142.134 6.6C143.147 4.6 144.534 3.08 146.294 2.04C148.081 0.973332 150.147 0.439999 152.494 0.439999C154.841 0.439999 156.894 0.973332 158.654 2.04C160.441 3.08 161.827 4.6 162.814 6.6C163.827 8.6 164.334 11.0133 164.334 13.84C164.334 16.6667 163.827 19.1067 162.814 21.16C161.827 23.1867 160.441 24.7467 158.654 25.84C156.894 26.9333 154.841 27.48 152.494 27.48ZM152.494 22.4C154.281 22.4 155.694 21.6267 156.734 20.08C157.774 18.5333 158.294 16.4533 158.294 13.84C158.294 11.2267 157.774 9.18667 156.734 7.72C155.694 6.25333 154.281 5.52 152.494 5.52C150.707 5.52 149.294 6.25333 148.254 7.72C147.214 9.18667 146.694 11.2267 146.694 13.84C146.694 16.4533 147.214 18.5333 148.254 20.08C149.294 21.6267 150.707 22.4 152.494 22.4ZM174.038 27V0.92H180.078L186.878 13.88L189.438 19.64H189.598C189.491 18.2533 189.344 16.7067 189.158 15C188.971 13.2933 188.878 11.6667 188.878 10.12V0.92H194.478V27H188.438L181.638 14L179.078 8.32H178.918C179.051 9.76 179.198 11.3067 179.358 12.96C179.544 14.6133 179.638 16.2133 179.638 17.76V27H174.038Z" fill="white"/>
</svg>
